<?xml version="1.0" encoding="utf-8"?>
<!-- Generator: Adobe Illustrator 24.1.2, SVG Export Plug-In . SVG Version: 6.00 Build 0)  -->
<svg version="1.1" id="Layer_1" xmlns="http://www.w3.org/2000/svg" xmlns:xlink="http://www.w3.org/1999/xlink" x="0px" y="0px"
	 viewBox="0 0 66.1 24.7" style="enable-background:new 0 0 66.1 24.7;" xml:space="preserve">
<style type="text/css">
	.st0{fill-rule:evenodd;clip-rule:evenodd;fill:#FFFFFF;}
	.st1{fill-rule:evenodd;clip-rule:evenodd;fill:#F75F06;}
</style>
<path class="st0" d="M18.2,5.9c0,0.7,0,1.5,0,2.2c0,0.3,0,0.4,0.3,0.4c1.6-0.2,3.1-0.4,4.7-0.5c0.3,0,0.2-0.3,0.3-0.5
	c0.1-1.4-0.1-2.8-0.2-4.2c0-0.2,0-0.4,0-0.6c0.1-0.7,0.4-1,1-1c0.7,0,1.1,0.3,1.1,1.1c0.1,1.5,0.1,3,0.2,4.5c0,0.4,0,0.6,0.5,0.8
	c0.6,0.2,0.6,0.7,0.6,1.2c0,0.5-0.2,0.9-0.8,0.8c-0.5,0-0.3,0.3-0.3,0.5c0,2.1,0,4.1-0.2,6.2c0,0.3-0.1,0.7-0.1,1
	c-0.1,0.5-0.3,0.9-0.9,0.9c-0.6,0-1-0.3-1.1-0.9c-0.2-1.1,0-2.1,0.1-3.2c0.1-1.4,0.2-2.7,0.2-4.1c0-0.4-0.1-0.4-0.4-0.4
	c-1.5,0.2-3,0.4-4.5,0.6c-0.4,0-0.4,0.3-0.4,0.6c0,2.1-0.2,4.2-0.6,6.3c-0.1,0.6-0.3,1.2-0.7,1.8c-0.2,0.3-0.4,0.5-0.8,0.4
	c-0.4-0.1-0.5-0.4-0.6-0.8c-0.1-0.8,0-1.7,0.2-2.5c0.3-1.7,0.6-3.5,0.6-5.2c0-0.3,0-0.6-0.4-0.7c-0.4-0.1-0.5-0.5-0.5-0.9
	c0-0.4,0.2-0.7,0.5-0.8c0.3-0.1,0.4-0.3,0.4-0.6c0-1.4,0-2.9,0.1-4.3c0-0.4,0.1-0.7,0.2-1.1c0.1-0.3,0.3-0.6,0.7-0.5
	c0.4,0,0.6,0.2,0.7,0.6C18.4,3.9,18.3,4.9,18.2,5.9z"/>
<path class="st0" d="M35,8c0.5,0.2,1,0.4,1.4,0.6c1.4,0.8,2.3,2,2.3,3.7c0,1.9-0.8,3.3-2.5,4.2c-0.6,0.4-1.3,0.6-2.1,0.8
	c-0.4,0.1-0.6,0.2-0.7,0.7c-0.1,0.8-0.8,1-1.4,0.5c-0.4-0.4-0.7-0.9-0.9-1.4c-0.8-2.5-1.2-5-1.6-7.6c-0.2-1.1-0.3-2.3-0.5-3.4
	c-0.1-0.5,0.1-0.9,0.5-1.2c1.6-1.3,3.3-1.7,5.2-1.1c0.8,0.3,1.5,0.8,1.6,1.7c0.1,1-0.2,1.8-1,2.3C35.3,7.8,35.1,7.9,35,8z
	 M33.3,14.9c0.6,0,1.2-0.2,1.7-0.4c1.3-0.6,1.7-1.5,1.1-2.8c-0.1-0.2-0.2-0.5-0.3-0.7c-0.9-1.6-2.5-2.3-4-1.9
	c-0.3,0.1-0.4,0.1-0.3,0.4c0.4,1.6,0.8,3.2,1.1,4.8C32.7,14.8,32.9,15,33.3,14.9z M32.3,5.2c-0.3,0-0.6,0-0.9,0.2
	C31.2,5.5,31,5.6,31,5.9c0,1.7,0.6,2.1,2.2,1.5c0,0,0,0,0.1,0c0.4-0.1,0.6-0.4,0.5-0.9C33.7,5.5,33.3,5.2,32.3,5.2z"/>
<path class="st0" d="M12.7,10.4c-0.1,1.6-0.3,3.1-0.4,4.6c-0.1,0.5-0.3,1-0.7,1.3c-1.2,1-2.6,1.5-4.1,1.8c-0.9,0.2-1.6-0.1-2.2-0.7
	c-2.3-2.2-2.8-4.2-1.8-7.1c0.5-1.3,1-2.6,2-3.7c0.9-1.1,2-1.7,3.5-1.4c0.7,0.2,1.5,0.3,2.2,0.5c0.5,0.2,0.8,0.5,1,1
	C12.4,8,12.7,9.2,12.7,10.4z M10.7,11.2c0-1,0-1.7-0.2-2.4c-0.3-0.9-0.9-1.6-1.8-1.8C7.7,6.8,7,7.3,6.5,8C6.2,8.4,5.9,8.8,5.7,9.2
	c-1.1,1.9-1.2,3.9-0.3,5.9c0.3,0.6,0.7,1,1.3,1.1c1.4,0.3,2.9-0.5,3.4-1.8C10.6,13.3,10.6,12.1,10.7,11.2z"/>
<path class="st0" d="M50.7,10.4c-0.1,1.6-0.2,3.1-0.5,4.7c-0.1,0.6-0.4,1-0.8,1.3c-1.3,1-2.7,1.6-4.3,1.8c-0.6,0.1-1.2-0.1-1.7-0.5
	c-1.8-1.6-2.9-3.4-2.4-5.9c0.3-1.6,0.9-3.2,1.9-4.5c1.1-1.6,2.5-2.3,4.4-1.8c0.2,0.1,0.4,0.1,0.6,0.1c1.2,0.2,2.1,0.8,2.3,2.1
	C50.5,8.5,50.7,9.4,50.7,10.4z M48.7,11c0-0.8,0-1.6-0.3-2.3c-0.3-0.9-0.9-1.5-1.9-1.7c-0.9-0.2-1.5,0.3-2,0.9
	c-0.4,0.4-0.7,0.9-0.9,1.5c-0.9,1.8-1.1,3.6-0.2,5.5c0.3,0.7,0.7,1.3,1.5,1.3c1.4,0.1,2.8-0.2,3.4-1.9C48.6,13.3,48.7,12.2,48.7,11z
	"/>
<path class="st0" d="M54.8,3c0.6,0,1.2,0.1,1.8,0.2c1,0.1,2,0.2,3-0.3c0.4-0.2,0.8-0.3,1.2-0.4c0.7-0.2,1.2,0.1,1.4,0.6
	c0.2,0.6,0,1.2-0.5,1.6c-0.6,0.4-1.3,0.5-2,0.6c-0.7,0.1-1.3,0.2-2,0.2c-0.3,0-0.4,0.2-0.4,0.5c0.1,1.2,0.3,2.5,0.5,3.7
	c0.4,2.6,0.8,5.2,0.9,7.9c0,0.5,0,1-0.1,1.5c0,0.6-0.4,0.8-0.9,0.8c-0.6,0-0.9-0.2-1-0.8c-0.1-1.2-0.3-2.4-0.4-3.7
	C56,12.4,55.8,9.2,55.6,6c0-0.4-0.2-0.5-0.5-0.5c-0.3,0-0.7-0.1-1-0.1C53.3,5.3,53,5,53,4.4c0-0.8,0.4-1.3,1.1-1.4
	C54.4,3,54.6,3,54.8,3z"/>
<path class="st0" d="M32.5,21.3c-0.3,0.3-0.4,0.7-0.4,1.1c0,0.2,0,0.4-0.2,0.4c-0.3,0-0.2-0.3-0.2-0.5c0-0.2,0.2-0.4,0.1-0.6
	c-0.3,0.1-0.3,0.4-0.4,0.5c-0.1,0.2-0.2,0.4-0.4,0.6c-0.1-0.5,0-1,0-1.4c0-0.1,0.1-0.1,0.2-0.1c0.3,0,0.7,0,1-0.2
	c0.4-0.3,0.7,0,0.7,0.4C33,22,33,22.5,32.8,23C32.4,22.6,32.8,21.9,32.5,21.3z"/>
<path class="st0" d="M9.6,18.9C9.4,19,9.2,19.1,9,19.2c-0.1,0.1-0.3,0.3-0.4,0.1c-0.1-0.1,0-0.3,0.1-0.4c0.2-0.3,0.4-0.7,0.8-1
	c0.1,0.1-0.1,0.5,0.4,0.3c0.4-0.1,0.9,0,1.2,0.3c0.3,0.3,0,0.8-0.2,1.1c-0.1,0.2-0.2,0.4-0.4,0.6c-0.1,0.1-0.1,0.3-0.3,0.1
	c-0.2-0.1-0.1-0.2,0-0.3c0.2-0.4,0.5-0.8,0.6-1.3c-0.5,0-0.7,0.4-0.9,0.7c-0.1,0.1-0.2,0.5-0.4,0.3c-0.2-0.2,0.1-0.4,0.1-0.5
	c0.1-0.1,0.2-0.2,0.3-0.3c0.1-0.1,0.2-0.1,0.1-0.2C9.8,18.7,9.7,18.8,9.6,18.9z"/>
<path class="st0" d="M24.7,23.2c0.3,0.1,0.1,0.7,0.6,0.6c0.4-0.1,0.6-0.4,0.7-0.8c-0.5,0-1.1,0-1.1-0.8c0-0.4,0.1-0.6,0.6-0.6
	c0.3,0,0.9-0.3,0.8,0.5c0,0.5,0.1,0.9-0.1,1.4C26,24,25.5,24.2,25,24.1C24.5,23.9,24.4,23.6,24.7,23.2z M25.6,22.6
	c0.2,0,0.3-0.2,0.3-0.4c0-0.3-0.3-0.3-0.5-0.3c-0.2,0-0.3,0.1-0.3,0.3C25.2,22.4,25.3,22.6,25.6,22.6z"/>
<path class="st0" d="M41.8,18.4c0.1,0.1,0.2,0.2,0.3,0.3c0.1-0.3,0.2-0.7,0.6-0.7c0.4,0,0.6,0.3,0.7,0.6c0.2,0.4,0.3,0.7,0.5,1.1
	c0,0.1,0.1,0.3-0.1,0.3c-0.2,0.1-0.2-0.1-0.3-0.2c-0.1-0.3-0.2-0.6-0.4-1c-0.1-0.2-0.2-0.5-0.4-0.4c-0.2,0.1-0.2,0.3-0.2,0.5
	c0,0.3,0,0.6,0,0.9c0,0.1,0,0.2-0.1,0.2c-0.1,0.1-0.2-0.1-0.2-0.1c-0.2-0.5-0.4-1.1-0.6-1.6C41.7,18.5,41.8,18.4,41.8,18.4z"/>
<path class="st0" d="M14.1,20.5c0.2,0.4,0.6,0.9,0.3,1c-0.4,0.2-0.3-0.5-0.6-0.7c0,0-0.1,0-0.1,0c-0.2,0.2-0.1,0.8-0.5,0.6
	c-0.3-0.1,0.1-0.5,0.2-0.8c0.2-0.6,0.4-1.1,0.7-1.7c0.1-0.1,0.1-0.4,0.3-0.3c0.3,0.1,0.1,0.3,0,0.5c-0.1,0.3-0.2,0.6-0.4,0.9
	c0.4,0.1,0.6-0.2,0.9-0.3C15,20.3,14.4,20.3,14.1,20.5z"/>
<path class="st0" d="M18.7,23.3c0-0.6,0.2-1.3,0.4-2c0-0.2,0.2-0.2,0.3-0.2c0.3,0,0.5,0,0.7,0.3c0.4,0.6,0,1.3-0.7,1.3
	c-0.3,0-0.3,0.1-0.3,0.3c0,0.2,0,0.3-0.1,0.5c0,0.1,0,0.3-0.2,0.3C18.6,23.8,18.7,23.6,18.7,23.3z M19.9,21.9c0-0.2,0-0.4-0.2-0.4
	c-0.3,0-0.3,0.3-0.4,0.5c0,0.2,0,0.4,0.2,0.4C19.7,22.4,19.8,22.2,19.9,21.9z"/>
<path class="st0" d="M37,20.1c0.4,0.1,0.5,0.4,0.6,0.6c0.1,0.3-0.1,0.3-0.3,0.4c-0.2,0.1-0.5,0-0.4,0.3c0.1,0.4,0.4,0.2,0.7,0.1
	c0.1-0.1,0.3-0.2,0.4,0c0.1,0.2-0.1,0.3-0.2,0.4c-0.3,0.1-0.6,0.4-0.9,0.1c-0.3-0.3-0.6-0.6-0.4-1.1C36.5,20.6,36.7,20.3,37,20.1z"
	/>
<path class="st0" d="M16.2,21.7c0.2,0,0.4-0.1,0.4,0.2c0,0.2-0.2,0.2-0.4,0.2c-0.6,0-0.9-0.3-0.9-0.9c0-0.4,0.7-1.1,1.1-1
	c0.4,0.1,0.4,0.4,0.4,0.7c0,0.3-0.1,0.5-0.5,0.4c-0.2-0.1-0.5-0.3-0.5,0.1C15.6,21.8,15.9,21.7,16.2,21.7z"/>
<path class="st0" d="M24.2,22.1c0,0.7-0.4,1.2-0.9,1.2c-0.5,0-0.7-0.2-0.7-0.7c0-0.5,0.4-1,0.8-1C23.8,21.6,24.1,21.8,24.2,22.1z
	 M23.8,22.3c0-0.2-0.1-0.4-0.3-0.4c-0.3,0-0.5,0.3-0.5,0.6c0,0.2,0,0.4,0.3,0.4C23.6,22.9,23.7,22.6,23.8,22.3z"/>
<path class="st0" d="M12.8,20.1c0,0.1,0,0.2,0,0.3c-0.1,0.3-0.1,0.9-0.4,0.9c-0.3,0-0.7-0.4-0.9-0.7c-0.3-0.3-0.1-0.6,0.1-0.9
	c0.2-0.3,0.5-0.4,0.8-0.2C12.6,19.6,12.9,19.8,12.8,20.1z M12.4,20.2c0-0.3-0.1-0.4-0.3-0.4c-0.3,0-0.4,0.2-0.4,0.4
	c0,0.2,0.2,0.5,0.4,0.5C12.4,20.7,12.3,20.4,12.4,20.2z"/>
<path class="st0" d="M39.1,20c0.4,0,0.8,0.7,0.8,1.3c0,0.1,0,0.4-0.2,0.3c-0.4-0.3-0.9,0.1-1.3-0.3c-0.2-0.2-0.2-0.4-0.2-0.6
	C38.3,20.2,38.6,20,39.1,20z M39,20.4c-0.3,0.1-0.4,0.2-0.4,0.5c0,0.3,0.3,0.4,0.6,0.4c0.2,0,0.3,0,0.2-0.2
	C39.4,20.7,39.4,20.4,39,20.4z"/>
<path class="st0" d="M30.3,23c-0.1,0.2,0.2,0.9-0.5,0.3c-0.1-0.1-0.2,0-0.4,0c-0.4-0.1-0.6-0.3-0.6-0.7c0-0.4,0.1-0.7,0.6-0.7
	c0.5,0,0.8,0.1,0.8,0.6C30.2,22.5,30.2,22.7,30.3,23z M29.8,22.7c0-0.3,0-0.6-0.4-0.6c-0.3,0-0.3,0.3-0.3,0.5c0,0.3,0.2,0.4,0.5,0.4
	C29.8,23,29.9,22.9,29.8,22.7z"/>
<path class="st0" d="M40.7,19.9c0.1,0.3,0.2,0.6,0.2,1c0,0.2,0,0.3-0.2,0.4c-0.2,0-0.2-0.1-0.2-0.2c-0.2-0.5-0.2-1-0.3-1.5
	c-0.1-0.4,0.4-0.4,0.6-0.4c0.2,0,0.6,0.2,0.6,0.4c0,0.2-0.2,0.2-0.4,0.1C40.6,19.5,40.7,19.7,40.7,19.9z"/>
<path class="st0" d="M21.5,21.7c-0.3,0.3-0.2,0.8-0.4,1.2c0,0.1-0.1,0.3-0.3,0.3c-0.2,0-0.2-0.2-0.1-0.4c0.1-0.4,0.2-0.9,0.3-1.3
	c0.1-0.3,0.2-0.4,0.5-0.3c0.4,0.1,0.5,0.3,0.5,0.6c0,0.2-0.1,0.3-0.3,0.2C21.7,21.9,21.7,21.7,21.5,21.7z"/>
<path class="st0" d="M27,22.8c0-0.3,0.1-0.6,0.1-0.9c0-0.2,0.1-0.4,0.5-0.4c0.4,0,0.6,0.3,0.7,0.5c0.1,0.2-0.2,0.3-0.3,0.1
	c-0.4-0.4-0.4-0.1-0.4,0.2c0,0.3-0.1,0.5-0.1,0.8c0,0.2,0,0.4-0.2,0.4c-0.2,0-0.2-0.2-0.2-0.4C27,23,27,23,27,22.8z"/>
<path class="st0" d="M34.9,19.8c0-0.1,0-0.2,0.1-0.3c0.2,0,0.2,0.1,0.2,0.2c0.2,0.8,0.3,1.6,0.5,2.3c0,0.1,0,0.3-0.1,0.3
	c-0.1,0-0.2-0.1-0.2-0.2C35.2,21.4,35.1,20.6,34.9,19.8z"/>
<path class="st1" d="M7.8,14.5c-1.5,0-2.7-1.2-2.7-2.6c0-1.5,1.2-2.7,2.7-2.7c1.5,0,2.7,1.2,2.7,2.6C10.5,13.3,9.2,14.5,7.8,14.5z
	 M9.2,11.9c0-0.7-0.6-1.4-1.4-1.4c-0.8,0-1.4,0.6-1.4,1.3c0,0.7,0.6,1.3,1.4,1.3C8.5,13.3,9.2,12.6,9.2,11.9z"/>
<path class="st1" d="M45.8,14.6c-1.5,0-2.7-1.2-2.7-2.6c0-1.5,1.2-2.7,2.7-2.7c1.5,0,2.7,1.2,2.7,2.6C48.4,13.7,47.1,14.6,45.8,14.6
	z M45.8,13.2c0.8,0,1.5-0.6,1.5-1.3c0-0.7-0.7-1.3-1.5-1.3c-0.8,0-1.5,0.6-1.5,1.3C44.4,12.7,45,13.2,45.8,13.2z"/>
</svg>
