<?xml version="1.0" encoding="UTF-8" standalone="no"?>
<!-- Created with Inkscape (http://www.inkscape.org/) -->

<svg
   xmlns:dc="http://purl.org/dc/elements/1.1/"
   xmlns:cc="http://creativecommons.org/ns#"
   xmlns:rdf="http://www.w3.org/1999/02/22-rdf-syntax-ns#"
   xmlns:svg="http://www.w3.org/2000/svg"
   xmlns="http://www.w3.org/2000/svg"
   xmlns:sodipodi="http://sodipodi.sourceforge.net/DTD/sodipodi-0.dtd"
   xmlns:inkscape="http://www.inkscape.org/namespaces/inkscape"
   width="89.019157mm"
   height="89.019157mm"
   viewBox="0 0 89.01916 89.019157"
   version="1.1"
   id="svg33"
   inkscape:version="0.92.3 (2405546, 2018-03-11)"
   sodipodi:docname="drawing1.svg">
  <defs
     id="defs27" />
  <sodipodi:namedview
     id="base"
     pagecolor="#ffffff"
     bordercolor="#666666"
     borderopacity="1.0"
     inkscape:pageopacity="0.0"
     inkscape:pageshadow="2"
     inkscape:zoom="0.35"
     inkscape:cx="776.02506"
     inkscape:cy="183.36807"
     inkscape:document-units="mm"
     inkscape:current-layer="layer1"
     showgrid="false"
     inkscape:snap-global="false"
     inkscape:window-width="1102"
     inkscape:window-height="810"
     inkscape:window-x="314"
     inkscape:window-y="39"
     inkscape:window-maximized="0"
     fit-margin-top="0"
     fit-margin-left="0"
     fit-margin-right="0"
     fit-margin-bottom="0"
     inkscape:showpageshadow="false"
     showborder="true"
     borderlayer="false"
     units="mm" />
  <metadata
     id="metadata30">
    <rdf:RDF>
      <cc:Work
         rdf:about="">
        <dc:format>image/svg+xml</dc:format>
        <dc:type
           rdf:resource="http://purl.org/dc/dcmitype/StillImage" />
        <dc:title></dc:title>
      </cc:Work>
    </rdf:RDF>
  </metadata>
  <g
     inkscape:label="Layer 1"
     inkscape:groupmode="layer"
     id="layer1"
     transform="translate(-23.352298,-78.092199)">
    <path
       style="fill:#000000;fill-opacity:0;stroke-width:0.26458332"
       id="path4603"
       sodipodi:type="arc"
       sodipodi:cx="34.395832"
       sodipodi:cy="91.758919"
       sodipodi:rx="45.735119"
       sodipodi:ry="13.985119"
       sodipodi:start="0"
       sodipodi:end="1.8146739"
       d="M 80.130951,91.758919 A 45.735119,13.985119 0 0 1 62.561625,102.77733 45.735119,13.985119 0 0 1 23.352298,105.3302 L 34.395832,91.758919 Z" />
    <path
       style="fill:#000000;fill-opacity:1;stroke:none;stroke-width:0.03527778"
       inkscape:connector-curvature="0"
       d="m 64.582947,78.599415 c -2.786944,0.740834 -5.856111,2.257778 -8.360833,4.162779 -11.394723,8.607778 -21.519446,30.338886 -22.225002,47.660276 -0.211667,5.60917 0.141111,7.72584 2.187222,13.05278 3.598334,9.34861 11.28889,18.76778 18.097502,22.15445 2.998611,1.48167 3.069166,1.48167 6.738056,1.48167 2.892778,-0.0353 4.550833,-0.24695 7.3025,-0.98778 10.689167,-2.82222 20.002501,-7.51417 25.258891,-12.62945 3.104444,-3.06916 3.633611,-4.48028 4.656667,-13.0175 2.39889,-19.72028 2.92806,-30.7975 1.83444,-37.50028 -1.128885,-6.80861 -3.563052,-14.710833 -5.326941,-17.391944 -1.799166,-2.786945 -9.771945,-5.468056 -20.637501,-7.020278 -4.586111,-0.635 -7.020278,-0.635 -9.525001,0.03528 z m 9.101668,12.170835 c 5.926667,1.27 10.406945,6.244167 12.488334,13.89944 0.705555,2.57528 0.776111,3.66889 0.776111,12.52362 0,7.58472 -0.105833,10.54805 -0.599722,13.58194 -1.093612,6.91445 -2.363612,10.61861 -5.080001,14.71084 -3.457222,5.25639 -8.713611,7.83166 -16.898056,8.29027 -3.704167,0.21167 -4.021667,0.14112 -5.926667,-0.70555 -6.808612,-3.13972 -11.465279,-13.97 -11.500557,-26.74056 -0.03528,-9.80722 6.173612,-23.84778 13.899446,-31.573611 4.656667,-4.656667 6.702778,-5.291667 12.841112,-3.986389 z"
       id="path35" />
    <path
       style="fill:#f95f02;fill-opacity:1;stroke:none;stroke-width:0.03527778"
       inkscape:connector-curvature="0"
       d="m 62.748503,106.08081 c -6.949723,1.76389 -12.029723,7.12611 -13.546668,14.2875 -1.5875,7.62 2.434167,15.875 9.454445,19.43805 7.302501,3.70417 15.804446,2.2225 21.343057,-3.66889 3.175,-3.38666 4.586112,-6.6675 4.938889,-11.35944 0.564445,-8.11389 -4.339166,-15.45167 -12.065,-18.20333 -2.716389,-0.95251 -7.373056,-1.19945 -10.124723,-0.49389 z"
       id="path37" />
    <path
       id="path37-6"
       d="m 64.720196,114.85762 c -3.75029,0.95243 -6.49161,3.84784 -7.310197,7.71475 -0.856656,4.11455 1.313547,8.57196 5.101907,10.49588 3.94066,2.00013 8.52855,1.20007 11.51735,-1.98106 1.71333,-1.8287 2.47481,-3.60024 2.66517,-6.13372 0.30459,-4.38123 -2.34154,-8.34337 -6.51064,-9.82917 -1.46583,-0.51432 -3.97872,-0.64767 -5.46359,-0.26668 z"
       inkscape:connector-curvature="0"
       style="fill:#000000;fill-opacity:1;stroke:none;stroke-width:0.01904287" />
    <path
       style="fill:#008000;stroke:none;stroke-width:2.85714293"
       d=""
       id="path4713"
       inkscape:connector-curvature="0"
       transform="matrix(0.26458333,0,0,0.26458333,23.352298,78.092199)" />
    <path
       style="fill:#ffffff;stroke:none;stroke-width:2.85714293"
       d="M 129.64172,279.80484 C 107.0704,265.52665 94.229383,235.50048 92.139707,192.11381 90.867593,165.70169 91.438233,161.45822 99.348031,138.51034 112.65115,99.915363 138.02954,62.121981 157.35318,52.129339 c 26.08549,-13.48933 59.2974,3.039255 74.28458,36.969235 7.88754,17.856876 10.44255,61.078676 5.89166,99.666326 -7.49797,63.57634 -30.93441,91.57388 -79.73797,95.25625 -15.8698,1.19742 -20.7462,0.46702 -28.14973,-4.21631 z m 66.30446,-45.57251 c 24.56462,-12.62971 36.78523,-33.22944 36.78523,-62.00719 0,-37.54728 -23.13951,-63.93685 -60.149,-68.59723 -40.24206,-5.067433 -76.170363,27.04622 -76.636887,68.50004 -0.57845,51.39923 54.405797,85.54663 100.000657,62.10438 z"
       id="path4715"
       inkscape:connector-curvature="0"
       transform="matrix(0.26458333,0,0,0.26458333,23.352298,78.092199)" />
    <path
       style="fill:#ffffff;stroke:none;stroke-width:2.85714293"
       d="M 129.64172,279.80484 C 107.0704,265.52665 94.229383,235.50048 92.139707,192.11381 90.867593,165.70169 91.438233,161.45822 99.348031,138.51034 112.65115,99.915363 138.02954,62.121981 157.35318,52.129339 c 26.14308,-13.519112 59.29688,3.038416 74.35819,37.135644 7.9017,17.888627 10.55922,65.866297 5.67872,102.520927 -8.17742,61.41578 -31.65244,88.61756 -79.59864,92.23524 -15.8698,1.19742 -20.7462,0.46702 -28.14973,-4.21631 z m 69.20997,-47.5782 c 60.53288,-35.47463 35.80547,-128.36512 -34.11765,-128.16568 -51.81088,0.14777 -84.912727,55.51945 -60.2639,100.80747 18.8174,34.57376 61.13693,46.84085 94.38155,27.35821 z"
       id="path4717"
       inkscape:connector-curvature="0"
       transform="matrix(0.26458333,0,0,0.26458333,23.352298,78.092199)" />
  </g>
</svg>
